<?xml version="1.0" encoding="utf-8"?>
<!-- Generator: Adobe Illustrator 19.2.0, SVG Export Plug-In . SVG Version: 6.00 Build 0)  -->
<svg version="1.1" xmlns="http://www.w3.org/2000/svg" xmlns:xlink="http://www.w3.org/1999/xlink" x="0px" y="0px"
	 viewBox="0 0 566.9 566.9" style="enable-background:new 0 0 566.9 566.9;" xml:space="preserve">
<style type="text/css">
	.st0{fill:#FFFFFF;}
	.st1{fill:#00A03A;}
	.st2{fill:#002037;}
</style>
<g id="Fondo">
	<rect x="0" y="-1.3" class="st0" width="566.9" height="568.2"/>
</g>
<g id="Textos">
	<polygon class="st1" points="414.1,417.2 122.9,417.2 154.8,348.8 446,348.8 	"/>
	<g id="Car_Rental_Contornos">
		<g>
			<path class="st0" d="M191.4,364.4c-4.9,0-8.7,1.6-11.5,4.7c-2.8,3.1-4.2,7.4-4.2,12.8c0,5.5,1.3,9.8,4,12.9
				c2.6,3.1,6.4,4.6,11.3,4.6c3.3,0,6.2-0.4,9-1.2v2.4c-2.6,0.9-5.8,1.4-9.6,1.4c-5.5,0-9.7-1.8-12.9-5.3c-3.1-3.5-4.7-8.4-4.7-14.8
				c0-3.9,0.7-7.4,2.2-10.4c1.5-3,3.6-5.3,6.5-7c2.8-1.6,6.1-2.5,9.8-2.5c3.8,0,7.2,0.7,10.2,2.1l-1.1,2.4
				C197.5,365.1,194.5,364.4,191.4,364.4z"/>
			<path class="st0" d="M223.4,401.3l-0.7-4.6h-0.2c-1.5,1.9-2.9,3.2-4.5,3.9c-1.5,0.8-3.3,1.2-5.4,1.2c-2.8,0-5-0.7-6.6-2.2
				c-1.6-1.5-2.4-3.5-2.4-6c0-2.8,1.2-5,3.5-6.6c2.3-1.6,5.7-2.4,10.2-2.5l5.5-0.2v-1.9c0-2.7-0.6-4.8-1.7-6.2
				c-1.1-1.4-2.9-2.1-5.4-2.1c-2.7,0-5.4,0.7-8.3,2.2l-1-2.3c3.2-1.5,6.3-2.2,9.4-2.2c3.2,0,5.5,0.8,7.1,2.5
				c1.6,1.6,2.3,4.2,2.3,7.7v19.2H223.4z M212.8,399.5c3.1,0,5.5-0.9,7.3-2.6c1.8-1.8,2.7-4.2,2.7-7.3v-2.8l-5,0.2
				c-4.1,0.2-6.9,0.8-8.7,1.9c-1.7,1.1-2.6,2.7-2.6,5c0,1.8,0.6,3.2,1.7,4.2C209.2,399,210.7,399.5,212.8,399.5z"/>
			<path class="st0" d="M243.9,371.9c1.2,0,2.5,0.1,3.9,0.4l-0.5,2.5c-1.2-0.3-2.5-0.5-3.7-0.5c-2.5,0-4.5,1-6.1,3.1
				c-1.6,2.1-2.4,4.7-2.4,7.9v15.9h-2.6v-28.9h2.2l0.3,5.2h0.2c1.2-2.1,2.5-3.6,3.8-4.5C240.4,372.4,242,371.9,243.9,371.9z"/>
			<path class="st0" d="M266.9,384.4v16.9h-2.7v-38.8h9.2c4.8,0,8.4,0.9,10.7,2.7c2.3,1.8,3.5,4.5,3.5,8c0,2.6-0.7,4.8-2.1,6.6
				c-1.4,1.8-3.5,3.1-6.3,3.8l10.5,17.7h-3.2l-10-16.9H266.9z M266.9,382.1h7.4c3.3,0,5.8-0.7,7.6-2.2c1.8-1.5,2.7-3.6,2.7-6.5
				c0-3-0.9-5.1-2.7-6.5c-1.8-1.3-4.7-2-8.7-2h-6.4V382.1z"/>
			<path class="st0" d="M305.4,401.9c-4.2,0-7.5-1.3-9.8-3.9c-2.3-2.6-3.5-6.2-3.5-10.9c0-4.6,1.1-8.3,3.4-11.1
				c2.3-2.8,5.3-4.2,9.2-4.2c3.4,0,6.1,1.2,8,3.6c2,2.4,2.9,5.6,2.9,9.7v2.1h-20.8c0,4,1,7,2.8,9.1c1.8,2.1,4.4,3.1,7.8,3.1
				c1.6,0,3.1-0.1,4.3-0.3c1.2-0.2,2.8-0.7,4.7-1.5v2.4c-1.6,0.7-3.1,1.2-4.5,1.4C308.6,401.7,307.1,401.9,305.4,401.9z
				 M304.6,374.3c-2.8,0-5,0.9-6.7,2.7c-1.7,1.8-2.7,4.5-2.9,7.9h17.8c0-3.3-0.7-6-2.2-7.8C309.2,375.2,307.2,374.3,304.6,374.3z"/>
			<path class="st0" d="M341.6,401.3v-18.7c0-2.9-0.6-5-1.8-6.3c-1.2-1.3-3.1-2-5.7-2c-3.5,0-6,0.9-7.6,2.6
				c-1.6,1.7-2.4,4.6-2.4,8.5v15.9h-2.6v-28.9h2.2l0.5,4h0.2c1.9-3,5.2-4.5,10-4.5c6.5,0,9.8,3.5,9.8,10.5v18.9H341.6z"/>
			<path class="st0" d="M359,399.5c1.7,0,3.1-0.1,4.4-0.4v2.1c-1.3,0.4-2.7,0.6-4.4,0.6c-2.5,0-4.4-0.7-5.6-2
				c-1.2-1.4-1.8-3.5-1.8-6.4v-18.6h-4.3v-1.5l4.3-1.2l1.3-6.5h1.4v7h8.5v2.3h-8.5V393c0,2.2,0.4,3.8,1.2,4.9
				C356.2,399,357.4,399.5,359,399.5z"/>
			<path class="st0" d="M385,401.3l-0.7-4.6h-0.2c-1.5,1.9-2.9,3.2-4.5,3.9c-1.5,0.8-3.3,1.2-5.4,1.2c-2.8,0-5-0.7-6.6-2.2
				c-1.6-1.5-2.4-3.5-2.4-6c0-2.8,1.2-5,3.5-6.6c2.3-1.6,5.7-2.4,10.2-2.5l5.5-0.2v-1.9c0-2.7-0.6-4.8-1.7-6.2
				c-1.1-1.4-2.9-2.1-5.4-2.1c-2.7,0-5.4,0.7-8.3,2.2l-1-2.3c3.2-1.5,6.3-2.2,9.4-2.2c3.2,0,5.5,0.8,7.1,2.5
				c1.6,1.6,2.3,4.2,2.3,7.7v19.2H385z M374.4,399.5c3.1,0,5.5-0.9,7.3-2.6c1.8-1.8,2.7-4.2,2.7-7.3v-2.8l-5,0.2
				c-4.1,0.2-6.9,0.8-8.7,1.9c-1.7,1.1-2.6,2.7-2.6,5c0,1.8,0.6,3.2,1.7,4.2C370.8,399,372.4,399.5,374.4,399.5z"/>
			<path class="st0" d="M396.8,401.3h-2.6V360h2.6V401.3z"/>
		</g>
	</g>
	<g id="Veico_Contornos_2_">
		<path class="st2" d="M17.4,202.7H51l32.8,86.2h0.5l33.1-86.2H149l-48.5,123.2H67.7L17.4,202.7z"/>
		<path class="st2" d="M170.1,275c2.1,18.2,15.9,29.3,33.1,29.3c15.4,0,25.4-7.2,33.1-16.7l22.1,16.7
			c-14.4,17.7-32.6,24.6-52.1,24.6c-37.2,0-67-25.9-67-64.7c0-38.7,29.8-64.7,67-64.7c34.4,0,57.7,24.1,57.7,67v8.5H170.1z
			 M233.2,251.9c-0.3-18-12.1-29.3-31.3-29.3c-18.2,0-29.5,11.5-31.8,29.3H233.2z"/>
		<path class="st2" d="M286.6,142.4c11.3,0,20,8,20,18.5s-8.7,18.5-20,18.5c-11.3,0-19.5-8.7-19.5-18.5
			C267.1,151.1,275.3,142.4,286.6,142.4z M271.4,202.7h30.8v123.2h-30.8V202.7z"/>
		<path class="st2" d="M400,239.6c-7.2-7.4-15.1-12.3-23.4-12.3c-22.6,0-36.2,17.7-36.2,37c0,19.2,13.6,37,36.2,37
			c9.5,0,18.2-4.1,23.9-11.5l20.5,22.1c-12.6,12.6-33.6,17.2-44.4,17.2c-37.2,0-67-25.9-67-64.7c0-38.7,29.8-64.7,67-64.7
			c15.7,0,32.8,5.6,44.7,18.7L400,239.6z"/>
		<path class="st2" d="M478.5,199.6c-37.2,0-67,25.9-67,64.7c0,38.7,29.8,64.7,67,64.7c37.2,0,67-25.9,67-64.7
			C545.5,225.5,515.7,199.6,478.5,199.6z M478.5,301.2c-10.7,0-19.3-3.9-25.5-10.1c-7.3-6.8-11.8-16.5-11.8-27.2
			c0-20.6,16.7-37.2,37.2-37.2c20.6,0,37.2,16.7,37.2,37.2c0,9.8-3.8,18.7-9.9,25.3C499.5,296.4,490.2,301.2,478.5,301.2z"/>
	</g>
	<circle class="st1" cx="478.4" cy="263.9" r="29.2"/>
</g>
</svg>
